<?xml version="1.0" encoding="utf-8"?>
<!-- Generator: Adobe Illustrator 21.0.0, SVG Export Plug-In . SVG Version: 6.00 Build 0)  -->
<svg version="1.1" id="Layer_1" xmlns="http://www.w3.org/2000/svg" xmlns:xlink="http://www.w3.org/1999/xlink" x="0px" y="0px"
	 viewBox="0 0 1099 257" style="enable-background:new 0 0 1099 257;" xml:space="preserve">
<style type="text/css">
	.st0{fill:#E7E6EA;}
	.st1{fill:#F2F2F4;}
	.st2{fill:#D6D6D8;}
	.st3{fill:none;stroke:#FDFDFF;stroke-miterlimit:10;}
	.st4{fill:#D60537;}
	.st5{fill:#FF0333;}
</style>
<g>
	<g>
		
			<ellipse transform="matrix(0.8462 -0.5328 0.5328 0.8462 -42.6822 77.5306)" class="st0" cx="113" cy="112.7" rx="112.7" ry="112.7"/>
	</g>
	<g>
		<g>
			<path d="M203.3,51.4l3.2,1.3L19,170.7l0.2-3.5L203.3,51.4 M203.3,50.2l-185,116.5l-0.3,5.9L208.7,52.5L203.3,50.2L203.3,50.2z"/>
			<polygon class="st1" points="208.7,52.5 17.9,172.6 18.2,166.7 203.3,50.2 			"/>
		</g>
		<g>
			<polygon class="st2" points="208.7,52.5 17.9,172.6 23.4,174.9 208.4,58.4 			"/>
		</g>
	</g>
	<path class="st3" d="M21.7,170.2"/>
	<g>
		<path class="st1" d="M24.3,174.3c32.7,47.2,97.1,60.7,146.2,29.8s64.7-94.8,36.3-144.7l1.6-6.7c33.2,52.7,17.4,122.3-35.3,155.5
			S50.8,225.5,17.6,172.8L24.3,174.3z"/>
	</g>
	<path class="st3" d="M204.4,55.2"/>
	<g>
		<path class="st2" d="M201.7,51.2C169,4,104.6-9.5,55.5,21.4s-64.7,94.8-36.3,144.7l-1.6,6.7C-15.6,120.1,0.3,50.5,53,17.3
			S175.3,0,208.4,52.7L201.7,51.2z"/>
	</g>
</g>
<g>
	<path class="st0" d="M347.8,206.3h-45.7v-68.7c0-7-2.9-10.5-8.7-10.5c-5.7,0-8.5,3.5-8.5,10.5v68.7h-45.7v-67.9
		c0-15.9,5.2-29.2,15.7-40.1S278.3,82,293.5,82c17.4,0,31.4,6.3,41.9,18.9c8.2,9.8,12.3,23.6,12.3,41.1v64.3H347.8z"/>
	<path class="st0" d="M415.1,39.7v46.6h20.5v48.2h-20.5c0,9.7,1.5,16.4,4.6,20s8.6,5.5,16.8,5.5v48c-2.4,0.1-4.1,0.1-5.2,0.1
		c-10.3,0-20.1-2.4-29.2-7.2c-9.2-4.8-16.5-11.3-22-19.5c-7-10.5-10.5-24.4-10.5-41.7v-100L415.1,39.7L415.1,39.7z"/>
	<path class="st0" d="M501,251.4h-45.7V149.8c0-18.6,4.9-33.8,14.6-45.5c5.6-6.8,12.8-12.1,21.4-16.1c8.7-4,17.6-6,26.7-6
		c18.1,0,33.4,6.1,45.9,18.3s18.7,27.2,18.7,44.9c0,17.3-6.2,32.1-18.6,44.7c-12.4,12.5-27,18.8-43.9,18.8c-2.8,0-6.8-0.3-12.2-0.9
		v-50.3c3.7,3,7.5,4.5,11.2,4.5c4.7,0,8.8-1.7,12.1-5.2c3.4-3.5,5.1-7.6,5.1-12.5c0-4.8-1.8-8.9-5.2-12.3c-3.5-3.4-7.7-5.1-12.6-5.1
		c-11.7,0-17.6,8.1-17.6,24.3v100H501z"/>
</g>
<g>
	<g>
		<path class="st0" d="M593.9,123.1h67.6v54c0,15.9-13,28.8-28.8,28.8h-9.9c-15.9,0-28.8-13-28.8-28.8L593.9,123.1L593.9,123.1z"/>
	</g>
	<g>
		<path class="st1" d="M653.7,123.1v54c0,15.9-13,28.8-28.8,28.8h7.8c15.9,0,28.8-13,28.8-28.8v-54
			C661.5,123.1,655.3,123.1,653.7,123.1z"/>
	</g>
	<path class="st4" d="M594.6,124.7h65.7c0.9,0,1.6-0.7,1.6-1.6V71.2c0-17.1-14-31.1-31.1-31.1H624c-17.1,0-31.1,14-31.1,31.1v51.9
		C593,124,593.7,124.7,594.6,124.7z"/>
	<path class="st5" d="M630.9,40.1h-6.8c-0.2,0-0.5,0-0.7,0c16.8,0.4,30.3,14.2,30.3,31.1v51.9c0,0.9-0.7,1.6-1.6,1.6h8.3
		c0.9,0,1.6-0.7,1.6-1.6V71.2C662,54.1,648,40.1,630.9,40.1z"/>
</g>
<g>
	<path class="st0" d="M728,39.7v166.6h-45.7V39.7H728z"/>
	<path class="st0" d="M800.3,39.7v166.6h-45.7V39.7H800.3z"/>
	<path class="st0" d="M946.7,152.9h-69.2c-1.1-3.5-1.6-6.7-1.6-9.6c0-4.1,0.7-8.1,2.2-12h23.2c-1.6-9-6.7-13.5-15.3-13.5
		c-5.7,0-10.3,2.4-13.9,7.3c-3.6,4.8-5.4,11-5.4,18.6c0,7.9,1.7,14.3,5.2,19.2s8,7.3,13.6,7.3c4.6,0,9-2.3,13.2-6.8l26,31.3
		c-12.1,9.5-25.6,14.3-40.4,14.3c-18.1,0-33.2-6.1-45.5-18.2c-12.3-12.1-18.4-27.1-18.4-45c0-17.8,6.2-32.9,18.6-45.2
		c12.4-12.3,27.6-18.4,45.7-18.4c17.7,0,32.5,6,44.5,18s18,26.8,18,44.4C947.2,146.1,947,149,946.7,152.9z"/>
	<path class="st0" d="M1074.2,206.3h-45.7v-68.7c0-7-2.9-10.5-8.7-10.5c-5.7,0-8.5,3.5-8.5,10.5v68.7h-45.7v-67.9
		c0-15.9,5.2-29.2,15.7-40.1s23.4-16.3,38.6-16.3c17.4,0,31.4,6.3,41.9,18.9c8.2,9.8,12.3,23.6,12.3,41.1L1074.2,206.3L1074.2,206.3
		z"/>
</g>
</svg>
